<mxfile host="Electron" modified="2024-02-02T13:26:36.423Z" agent="Mozilla/5.0 (Windows NT 10.0; Win64; x64) AppleWebKit/537.36 (KHTML, like Gecko) draw.io/22.0.2 Chrome/114.0.5735.289 Electron/25.8.4 Safari/537.36" etag="q9FQGRAykm9Z04i3rFdn" version="22.0.2" type="device">
  <diagram id="RoFN31DEDuAoprLHtcjy" name="Page-1">
    <mxGraphModel dx="345" dy="202" grid="1" gridSize="10" guides="1" tooltips="1" connect="1" arrows="1" fold="1" page="0" pageScale="1" pageWidth="827" pageHeight="1169" math="0" shadow="0">
      <root>
        <mxCell id="0" />
        <mxCell id="1" parent="0" />
        <mxCell id="3Ych9QoQo4VoyjM5WHYG-4" value="" style="rounded=0;whiteSpace=wrap;html=1;fillColor=none;dashed=1;" parent="1" vertex="1">
          <mxGeometry x="140" y="210" width="140" height="100" as="geometry" />
        </mxCell>
        <mxCell id="3Ych9QoQo4VoyjM5WHYG-5" value="Deploy applications" style="text;html=1;fillColor=#e1d5e7;align=center;verticalAlign=middle;whiteSpace=wrap;rounded=1;dashed=1;fontStyle=1;fontSize=15;strokeColor=none;gradientColor=none;gradientDirection=south;" parent="1" vertex="1">
          <mxGeometry x="140" y="160" width="140" height="40" as="geometry" />
        </mxCell>
        <mxCell id="hjqb28hFsZi5MVu-S77l-1" value="" style="endArrow=none;dashed=1;html=1;rounded=0;fontSize=15;" parent="1" edge="1">
          <mxGeometry width="50" height="50" relative="1" as="geometry">
            <mxPoint x="80" y="310" as="sourcePoint" />
            <mxPoint x="80" y="210" as="targetPoint" />
            <Array as="points">
              <mxPoint x="120" y="310" />
              <mxPoint x="120" y="210" />
            </Array>
          </mxGeometry>
        </mxCell>
        <mxCell id="hjqb28hFsZi5MVu-S77l-2" value="" style="edgeStyle=orthogonalEdgeStyle;rounded=0;orthogonalLoop=1;jettySize=auto;html=1;exitX=0.5;exitY=0;exitDx=0;exitDy=0;entryX=0;entryY=0.5;entryDx=0;entryDy=0;" parent="1" source="hjqb28hFsZi5MVu-S77l-3" target="hjqb28hFsZi5MVu-S77l-18" edge="1">
          <mxGeometry relative="1" as="geometry">
            <Array as="points">
              <mxPoint x="100" y="260" />
            </Array>
            <mxPoint x="60" y="245" as="targetPoint" />
          </mxGeometry>
        </mxCell>
        <mxCell id="hjqb28hFsZi5MVu-S77l-3" value="" style="ellipse;whiteSpace=wrap;html=1;aspect=fixed;fillColor=#000000;" parent="1" vertex="1">
          <mxGeometry x="90" y="250" width="20" height="20" as="geometry" />
        </mxCell>
        <mxCell id="hjqb28hFsZi5MVu-S77l-4" value="Build applications" style="text;html=1;strokeColor=none;fillColor=#e1d5e7;align=center;verticalAlign=middle;whiteSpace=wrap;rounded=1;dashed=1;fontStyle=1;fontSize=15;" parent="1" vertex="1">
          <mxGeometry x="30" y="160" width="90" height="40" as="geometry" />
        </mxCell>
        <mxCell id="hjqb28hFsZi5MVu-S77l-18" value="Deploy Greengrass components" style="rounded=1;whiteSpace=wrap;html=1;glass=0;fillColor=#ffe6cc;strokeColor=#d79b00;" parent="1" vertex="1">
          <mxGeometry x="170" y="230" width="80" height="60" as="geometry" />
        </mxCell>
        <mxCell id="4251CE4mGrURXaeqV2rG-8" value="AWS IoT Greengrass Deployment" style="text;html=1;strokeColor=none;fillColor=none;align=center;verticalAlign=middle;whiteSpace=wrap;rounded=0;" parent="1" vertex="1">
          <mxGeometry x="148.75" y="370" width="122.5" height="30" as="geometry" />
        </mxCell>
        <mxCell id="4251CE4mGrURXaeqV2rG-9" value="" style="endArrow=classic;html=1;rounded=0;exitX=0.5;exitY=1;exitDx=0;exitDy=0;entryX=0.5;entryY=0;entryDx=0;entryDy=0;dashed=1;" parent="1" source="hjqb28hFsZi5MVu-S77l-18" edge="1" target="0v1dSEUdop3Ulu4-wXk0-2">
          <mxGeometry width="50" height="50" relative="1" as="geometry">
            <mxPoint x="209.66" y="290" as="sourcePoint" />
            <mxPoint x="209.66" y="330.0000000000001" as="targetPoint" />
          </mxGeometry>
        </mxCell>
        <mxCell id="0v1dSEUdop3Ulu4-wXk0-1" value="" style="group" vertex="1" connectable="0" parent="1">
          <mxGeometry x="190" y="330" width="40" height="40" as="geometry" />
        </mxCell>
        <mxCell id="0v1dSEUdop3Ulu4-wXk0-2" value="" style="rounded=0;whiteSpace=wrap;html=1;strokeColor=none;fillColor=#7AA116;" vertex="1" parent="0v1dSEUdop3Ulu4-wXk0-1">
          <mxGeometry width="40" height="40" as="geometry" />
        </mxCell>
        <mxCell id="0v1dSEUdop3Ulu4-wXk0-3" value="" style="sketch=0;outlineConnect=0;fontColor=#232F3E;gradientColor=none;fillColor=#FFFFFF;strokeColor=none;dashed=0;verticalLabelPosition=bottom;verticalAlign=top;align=center;html=1;fontSize=12;fontStyle=0;aspect=fixed;pointerEvents=1;shape=mxgraph.aws4.iot_greengrass_component;" vertex="1" parent="0v1dSEUdop3Ulu4-wXk0-1">
          <mxGeometry x="8" y="8" width="30" height="30" as="geometry" />
        </mxCell>
        <mxCell id="0v1dSEUdop3Ulu4-wXk0-4" value="" style="rounded=0;whiteSpace=wrap;html=1;strokeColor=none;fillColor=#7AA116;" vertex="1" parent="0v1dSEUdop3Ulu4-wXk0-1">
          <mxGeometry x="6" y="10" width="10" height="25" as="geometry" />
        </mxCell>
        <mxCell id="0v1dSEUdop3Ulu4-wXk0-5" value="" style="rounded=0;whiteSpace=wrap;html=1;strokeColor=none;fillColor=#7AA116;direction=south;" vertex="1" parent="0v1dSEUdop3Ulu4-wXk0-1">
          <mxGeometry x="11" y="7.119999999999891" width="27" height="10" as="geometry" />
        </mxCell>
        <mxCell id="0v1dSEUdop3Ulu4-wXk0-6" value="" style="sketch=0;outlineConnect=0;fontColor=#232F3E;gradientColor=none;fillColor=#FFFFFF;strokeColor=none;dashed=0;verticalLabelPosition=bottom;verticalAlign=top;align=center;html=1;fontSize=12;fontStyle=0;aspect=fixed;pointerEvents=1;shape=mxgraph.aws4.iot_greengrass_component;" vertex="1" parent="0v1dSEUdop3Ulu4-wXk0-1">
          <mxGeometry x="3" y="2.880000000000109" width="30" height="30" as="geometry" />
        </mxCell>
      </root>
    </mxGraphModel>
  </diagram>
</mxfile>
